<?xml version="1.0" encoding="utf-8"?>
<!-- Generator: Adobe Illustrator 26.0.3, SVG Export Plug-In . SVG Version: 6.00 Build 0)  -->
<svg version="1.1" id="圖層_1" xmlns="http://www.w3.org/2000/svg" xmlns:xlink="http://www.w3.org/1999/xlink" x="0px" y="0px"
	 width="50px" height="50px" viewBox="0 0 50 50" style="enable-background:new 0 0 50 50;" xml:space="preserve">
<style type="text/css">
	.st0{fill:#2782D7;}
	.st1{fill-rule:evenodd;clip-rule:evenodd;fill:#2782D7;}
</style>
<g>
	<path class="st0" d="M10.4,4.1h26.4l-2.5,2.6H10.4c-2.9,0-5.3,2.4-5.3,5.3v27.1c0,2.9,2.4,5.3,5.3,5.3h26.7c2.9,0,5.3-2.4,5.3-5.3
		V17.4l2.6-2.6V39c0,4.4-3.5,7.9-7.9,7.9H10.4c-4.4,0-7.9-3.5-7.9-7.9V11.9C2.5,7.6,6.1,4.1,10.4,4.1L10.4,4.1z"/>
	<polygon class="st1" points="25,31.3 24.9,31.3 17,33.5 19.1,25.6 19.2,25.5 	"/>
	<polygon class="st1" points="43.7,12.6 25.8,30.4 20.1,24.7 37.9,6.8 	"/>
	<path class="st1" d="M44,3.6l3,3c0.7,0.7,0.7,2.1,0,2.8l-2.4,2.4L38.7,6l2.4-2.4C41.9,2.9,43.1,2.9,44,3.6L44,3.6z"/>
</g>
</svg>
