<?xml version="1.0" encoding="utf-8"?>
<!-- Generator: Adobe Illustrator 26.0.3, SVG Export Plug-In . SVG Version: 6.00 Build 0)  -->
<svg version="1.1" id="圖層_1" xmlns="http://www.w3.org/2000/svg" xmlns:xlink="http://www.w3.org/1999/xlink" x="0px" y="0px"
	 width="50px" height="50px" viewBox="0 0 50 50" style="enable-background:new 0 0 50 50;" xml:space="preserve">
<style type="text/css">
	.st0{fill:#2782D7;}
</style>
<g>
	<path class="st0" d="M40.9,9.1C36.7,4.8,31,2.5,25,2.5S13.3,4.9,9.1,9.1S2.5,19,2.5,25s2.4,11.7,6.6,15.9c4.3,4.3,9.9,6.6,15.9,6.6
		s11.7-2.4,15.9-6.6c4.1-4.3,6.6-9.9,6.6-15.9S45.1,13.3,40.9,9.1z M25,45C14,45,5,36,5,25S14,5,25,5s20,9,20,20S36,45,25,45z"/>
	<g>
		<g>
			<rect x="22.8" y="19.8" class="st0" width="4.5" height="18.7"/>
		</g>
	</g>
	<g>
		<g>
			<rect x="22.8" y="11.7" class="st0" width="4.5" height="4.5"/>
		</g>
	</g>
</g>
</svg>
