<?xml version="1.0" encoding="utf-8"?>
<!-- Generator: Adobe Illustrator 22.0.1, SVG Export Plug-In . SVG Version: 6.00 Build 0)  -->
<svg version="1.1" id="圖層_1" xmlns="http://www.w3.org/2000/svg" xmlns:xlink="http://www.w3.org/1999/xlink" x="0px" y="0px"
	 viewBox="0 0 50 50" style="enable-background:new 0 0 50 50;" xml:space="preserve">
<style type="text/css">
	.st0{fill:#2782D7;}
</style>
<path class="st0" d="M40.2,36.2c-3.4-2.2-7.4-3.7-9.4-4.1c-0.1-0.3-0.3-0.8-0.3-1.4c1.3-1.5,2.9-3.8,3.5-6.6
	c0.7-0.3,1.4-1.2,1.8-2.2c0.6-1.5,0.7-3.6-0.4-5.1l0-0.1c0.2-1.9,0.7-7-2.3-10.3c-1.7-2-4.5-3-8.1-3c-3.5,0-6.3,1-8.1,3
	c-3,3.3-2.5,8.4-2.3,10.4v0c-1.1,1.5-1,3.7-0.5,5.1c0.4,1.1,1,1.8,1.8,2.2c0.5,2.2,1.7,4.5,3.5,6.6c-0.1,0.7-0.2,1.2-0.3,1.4
	c-2.2,0.4-6.2,2.1-9.4,4.1c-2.7,1.6-7.4,5-7.4,9.2v1.3h45v-1.3C47.5,42.4,45,39.3,40.2,36.2z M19.9,34.4c1.3-0.3,1.7-1.6,1.9-2.6
	C22,31,22,30.1,22,30.1v-0.5l-0.3-0.3c0,0-2.8-2.9-3.4-6.4l-0.2-1.1l-1,0c-0.1,0-0.3-0.3-0.6-0.9c-0.3-0.9-0.3-2.3,0.2-2.7l0.5-0.3
	v-0.7c0-0.1,0-0.3-0.1-0.4c0-0.1,0-0.2,0-0.3l0-0.1c-0.2-1.9-0.6-5.9,1.6-8.4c1.3-1.4,3.3-2.2,6.2-2.2c2.8,0,4.9,0.7,6.2,2.2
	c2.2,2.5,1.8,6.6,1.6,8.4c-0.1,0.3-0.1,0.6-0.1,0.8v0.7l0.5,0.3c0.5,0.4,0.6,1.6,0.2,2.8c-0.1,0.5-0.4,0.8-0.5,0.8h-1.1l-0.2,1.1
	c-0.6,3.6-3.3,6.4-3.4,6.4l-0.3,0.3v0.5c0,0,0,0.9,0.2,1.7c0.1,0.6,0.5,2.4,2,2.6c1.3,0.2,4.9,1.5,8.8,3.8c3.2,2.1,5.2,4.1,5.9,5.9
	H5.2c0.6-1.8,2.6-3.8,5.9-5.9C14.9,35.9,18.5,34.6,19.9,34.4z"/>
</svg>
