<?xml version="1.0" encoding="utf-8"?>
<!-- Generator: Adobe Illustrator 22.0.1, SVG Export Plug-In . SVG Version: 6.00 Build 0)  -->
<svg version="1.1" id="圖層_1" xmlns="http://www.w3.org/2000/svg" xmlns:xlink="http://www.w3.org/1999/xlink" x="0px" y="0px"
	 width="50px" height="50px" viewBox="2.5 2.5 50 50" style="enable-background:new 2.5 2.5 50 50;" xml:space="preserve">
<style type="text/css">
	.st0{fill:#2782D7;}
</style>
<g>
	<path class="st0" d="M42.5,21.4h-1.8v-5.7c0-7.3-5.9-13.2-13.2-13.2l0,0c-7.3,0-13.2,5.9-13.2,13.2v5.7h-1.8c-2,0-3.6,1.6-3.6,3.6
		v23.8c0,2,1.6,3.6,3.6,3.6h30c2,0,3.6-1.6,3.6-3.6V25C46.1,23,44.5,21.4,42.5,21.4z M16.6,15.7c0-6,4.9-10.9,10.9-10.9
		c6,0,10.9,4.9,10.9,10.9v5.7H16.6V15.7z M43.9,48.9c0,0.7-0.6,1.4-1.4,1.4h-30c-0.7,0-1.4-0.6-1.4-1.4V25c0-0.7,0.6-1.4,1.4-1.4h30
		c0.7,0,1.4,0.6,1.4,1.4V48.9z"/>
	<path class="st0" d="M27.5,37.5c-1.1,0-1.9,0.9-1.9,1.9v5.5c0,1.1,0.9,1.9,1.9,1.9c1,0,1.9-0.9,1.9-1.9v-5.5
		C29.4,38.4,28.6,37.5,27.5,37.5z"/>
</g>
<g>
	<path class="st0" d="M42.5,21.4h-1.8v-5.7c0-7.3-5.9-13.2-13.2-13.2l0,0c-7.3,0-13.2,5.9-13.2,13.2v5.7h-1.8c-2,0-3.6,1.6-3.6,3.6
		v23.8c0,2,1.6,3.6,3.6,3.6h30c2,0,3.6-1.6,3.6-3.6V25C46.1,23,44.5,21.4,42.5,21.4z M16.6,15.7c0-6,4.9-10.9,10.9-10.9
		c6,0,10.9,4.9,10.9,10.9v5.7H16.6V15.7z M43.9,48.9c0,0.7-0.6,1.4-1.4,1.4h-30c-0.7,0-1.4-0.6-1.4-1.4V25c0-0.7,0.6-1.4,1.4-1.4h30
		c0.7,0,1.4,0.6,1.4,1.4V48.9z"/>
	<path class="st0" d="M27.5,37.5c-1.1,0-1.9,0.9-1.9,1.9v5.5c0,1.1,0.9,1.9,1.9,1.9c1,0,1.9-0.9,1.9-1.9v-5.5
		C29.4,38.4,28.6,37.5,27.5,37.5z"/>
</g>
</svg>
