<?xml version="1.0" encoding="utf-8"?>
<!-- Generator: Adobe Illustrator 26.0.3, SVG Export Plug-In . SVG Version: 6.00 Build 0)  -->
<svg version="1.1" id="圖層_1" xmlns="http://www.w3.org/2000/svg" xmlns:xlink="http://www.w3.org/1999/xlink" x="0px" y="0px"
	 width="50px" height="50px" viewBox="0 0 50 50" style="enable-background:new 0 0 50 50;" xml:space="preserve">
<style type="text/css">
	.st0{fill:#2782D7;}
</style>
<g>
	<g>
		<path class="st0" d="M28.1,20.1c-0.9,0-1.5,0.6-1.5,1.3s0.7,1.3,1.5,1.3h12.4c0.9,0,1.5-0.6,1.5-1.3s-0.7-1.3-1.5-1.3H28.1z"/>
		<path class="st0" d="M40.3,13.4H23.7c-0.9,0-1.5,0.6-1.5,1.3s0.7,1.3,1.5,1.3h16.7c0.9,0,1.5-0.6,1.5-1.3S41.2,13.4,40.3,13.4z"/>
	</g>
	<g>
		<path class="st0" d="M47.5,3.5H2.6C1.1,3.5,0,4.6,0,6v15.2c0.6-0.7,1.3-1.3,2.1-1.7V6c0-0.2,0.2-0.4,0.5-0.4V5.5h44.9
			C47.8,5.5,48,5.7,48,6v24.1c0,0.3-0.2,0.5-0.5,0.5H41l-2.5,2.1h8.8c1.5,0,2.6-1.1,2.6-2.6V6C50,4.6,48.9,3.5,47.5,3.5z"/>
	</g>
	<g>
		<path class="st0" d="M11.3,20.6c2.9,0,5.3-2.4,5.3-5.3l0,0c0-2.9-2.4-5.3-5.3-5.3S6,12.4,6,15.3l0,0C6,18.2,8.4,20.6,11.3,20.6z"
			/>
		<path class="st0" d="M37,29.2c0.6-0.6,0.7-1.5,0.1-2.2c-0.6-0.6-1.5-0.7-2.2-0.1L22,38.4V28.3c0-3.4-2.7-6.3-6.1-6.4
			c-0.1,0-0.2,0-0.3,0L11,30.4l-4-8.5H6.6c-3.6,0-6.6,3-6.6,6.6v14.9c0,1.7,1.4,3.1,3.1,3.1h15.7c1.7,0,3.1-1.4,3.1-3.1v-0.8
			L37,29.2z"/>
	</g>
</g>
</svg>
