<?xml version="1.0" encoding="utf-8"?>
<!-- Generator: Adobe Illustrator 22.0.1, SVG Export Plug-In . SVG Version: 6.00 Build 0)  -->
<svg version="1.1" id="Capa_1" xmlns="http://www.w3.org/2000/svg" xmlns:xlink="http://www.w3.org/1999/xlink" x="0px" y="0px"
	 viewBox="0 0 50 50" style="enable-background:new 0 0 50 50;" xml:space="preserve">
<style type="text/css">
	.st0{fill:#2782D7;}
</style>
<g>
	<path class="st0" d="M45.1,6.2L45.1,6.2l-0.3-0.1H5.1H5v0.1C3.6,6.3,2.7,7.4,2.5,8.6v0.2V35c0,0.5,0.1,0.9,0.4,1.4
		c0.5,0.9,1.3,1.4,2.3,1.4h14.5v3.7h-2.7c-0.7,0-1.2,0.5-1.2,1.2c0,0.7,0.5,1.2,1.2,1.2h16.2c0.7,0,1.3-0.5,1.3-1.2
		c0-0.7-0.5-1.2-1.3-1.2h-2.7v-3.7h14.4c1.1,0,1.8-0.5,2.3-1.4c0.3-0.4,0.4-0.8,0.4-1.4V8.9V8.6C47.4,7.4,46.5,6.3,45.1,6.2z
		 M45.1,8.9v26.2c0,0.2-0.1,0.2-0.2,0.2H5.1c-0.2,0-0.2-0.1-0.2-0.2V8.9V8.6h40.2V8.9L45.1,8.9z"/>
</g>
</svg>
