<?xml version="1.0" encoding="utf-8"?>
<!-- Generator: Adobe Illustrator 22.0.1, SVG Export Plug-In . SVG Version: 6.00 Build 0)  -->
<svg version="1.1" id="圖層_1" xmlns="http://www.w3.org/2000/svg" xmlns:xlink="http://www.w3.org/1999/xlink" x="0px" y="0px"
	 width="50px" height="50px" viewBox="0 0 50 50" style="enable-background:new 0 0 50 50;" xml:space="preserve">
<style type="text/css">
	.st0{fill:#666666;}
	.st1{fill:#DBDBDB;}
</style>
<g>
	<path class="st0" d="M30.1,0.5l-1.7,4.8C37.8,6.9,45,15.1,45,25c0,1.5-0.2,2.9-0.5,4.3l4.7,1.7c0.5-1.9,0.7-4,0.7-6.1
		C50,12.9,41.5,2.9,30.1,0.5z"/>
	<path class="st1" d="M25,45C14,45,5,36,5,25S14,5,25,5c1.1,0,2.3,0.1,3.4,0.3c0,0,0,0,0,0l1.7-4.8C28.5,0.2,26.7,0,25,0
		C11.2,0,0,11.2,0,25s11.2,25,25,25c11.7,0,21.5-8.1,24.3-18.9l-4.7-1.7C42.5,38.3,34.5,45,25,45z"/>
</g>
</svg>
