<svg xmlns:x="http://ns.adobe.com/Extensibility/1.0/" xmlns:i="http://ns.adobe.com/AdobeIllustrator/10.0/" xmlns:graph="http://ns.adobe.com/Graphs/1.0/" xmlns="http://www.w3.org/2000/svg" xmlns:xlink="http://www.w3.org/1999/xlink" xmlns:a="http://ns.adobe.com/AdobeSVGViewerExtensions/3.0/" version="1.1" id="Capa_1" x="0px" y="0px" width="50" height="50" viewBox="0 0 50 50" style="enable-background:new 0 0 50 50;" xml:space="preserve">
<style type="text/css">
<![CDATA[
	.st0{fill:url(#SVGID_1_);}
	.st1{fill:url(#SVGID_2_);}
	.st2{fill:url(#SVGID_3_);}
]]>
</style>
<metadata>
	<sfw xmlns="http://ns.adobe.com/SaveForWeb/1.0/">
		<slices/>
		<sliceSourceBounds height="45" width="45" x="2" y="3" bottomLeftOrigin="true"/>
	</sfw>
</metadata>
<g>
	<linearGradient id="SVGID_1_" gradientUnits="userSpaceOnUse" x1="25.0005" y1="47.499" x2="25.0005" y2="2.5015">
		<stop offset="0" style="stop-color:#0C86A1"/>
		<stop offset="1" style="stop-color:#4CB1C7"/>
		<a:midPointStop offset="0" style="stop-color:#0C86A1"/>
		<a:midPointStop offset="0.5" style="stop-color:#0C86A1"/>
		<a:midPointStop offset="1" style="stop-color:#4CB1C7"/>
	</linearGradient>
	<path class="st0" d="M43.9,22.1c0.4,0,0.7-0.3,0.7-0.7v-2.2h2.2c0.4,0,0.7-0.3,0.7-0.7v-8c0-0.4-0.3-0.7-0.7-0.7h-6.4L25.3,2.6   c-0.2-0.1-0.4-0.1-0.6,0L9.6,9.8H3.2c-0.4,0-0.7,0.3-0.7,0.7v8c0,0.4,0.3,0.7,0.7,0.7h2.2v2.2c0,0.4,0.3,0.7,0.7,0.7h0.7v15.2H6.1   c-0.4,0-0.7,0.3-0.7,0.7v2.2H4.7C4.3,40.2,4,40.6,4,41v2.2H3.2c-0.4,0-0.7,0.3-0.7,0.7v2.9c0,0.4,0.3,0.7,0.7,0.7h43.5   c0.4,0,0.7-0.3,0.7-0.7v-2.9c0-0.4-0.3-0.7-0.7-0.7H46V41c0-0.4-0.3-0.7-0.7-0.7h-0.7v-2.2c0-0.4-0.3-0.7-0.7-0.7h-0.7V22.1H43.9z    M4,17.7v-6.5h5.8c0.1,0,0.2,0,0.3-0.1L25,4l14.9,7.1c0.1,0,0.2,0.1,0.3,0.1H46v6.5H4z M43.1,38.8v1.5h-7.3v-1.5H43.1z M37.3,37.3   V22.1h4.4v15.2H37.3z M35.9,37.3h-0.7c-0.4,0-0.7,0.3-0.7,0.7v2.2h-4.4v-2.2c0-0.4-0.3-0.7-0.7-0.7h-0.7V22.1h0.7   c0.4,0,0.7-0.3,0.7-0.7v-2.2h4.4v2.2c0,0.4,0.3,0.7,0.7,0.7h0.7V37.3z M14.8,37.3h-0.7V22.1h0.7c0.4,0,0.7-0.3,0.7-0.7v-2.2h4.4   v2.2c0,0.4,0.3,0.7,0.7,0.7h0.7v15.2h-0.7c-0.4,0-0.7,0.3-0.7,0.7v2.2h-4.4v-2.2C15.6,37.7,15.2,37.3,14.8,37.3z M6.9,20.6v-1.5   h7.3v1.5H6.9z M12.7,22.1v15.2H8.3V22.1H12.7z M21.4,38.8h7.3v1.5h-7.3V38.8z M22.8,37.3V22.1h4.4v15.2H22.8z M21.4,20.6v-1.5h7.3   v1.5H21.4z M6.9,38.8h7.3v1.5H6.9V38.8z M46,44.6V46H4v-1.5H46z M44.6,41.7v1.5H5.4v-1.5H44.6z M35.9,20.6v-1.5h7.3v1.5H35.9z"/>
	<linearGradient id="SVGID_2_" gradientUnits="userSpaceOnUse" x1="24.9995" y1="17.0151" x2="24.9995" y2="5.4023">
		<stop offset="0" style="stop-color:#0C86A1"/>
		<stop offset="1" style="stop-color:#4CB1C7"/>
		<a:midPointStop offset="0" style="stop-color:#0C86A1"/>
		<a:midPointStop offset="0.5" style="stop-color:#0C86A1"/>
		<a:midPointStop offset="1" style="stop-color:#4CB1C7"/>
	</linearGradient>
	<path class="st1" d="M25,5.4c-3.2,0-5.8,2.6-5.8,5.8c0,3.2,2.6,5.8,5.8,5.8c3.2,0,5.8-2.6,5.8-5.8C30.8,8,28.2,5.4,25,5.4z    M25,15.6c-2.4,0-4.4-1.9-4.4-4.4c0-2.4,2-4.4,4.4-4.4c2.4,0,4.4,2,4.4,4.4C29.4,13.6,27.4,15.6,25,15.6z"/>
	<linearGradient id="SVGID_3_" gradientUnits="userSpaceOnUse" x1="24.9995" y1="15.563" x2="24.9995" y2="6.853">
		<stop offset="0" style="stop-color:#0C86A1"/>
		<stop offset="1" style="stop-color:#4CB1C7"/>
		<a:midPointStop offset="0" style="stop-color:#0C86A1"/>
		<a:midPointStop offset="0.5" style="stop-color:#0C86A1"/>
		<a:midPointStop offset="1" style="stop-color:#4CB1C7"/>
	</linearGradient>
	<path class="st2" d="M25.7,14.8v-0.1c0.8-0.3,1.4-1.1,1.4-1.9c0-1.3-1-1.8-1.8-2.2c-0.7-0.4-1-0.6-1-0.9C24.4,9.3,24.7,9,25,9   c0.4,0,0.7,0.2,0.7,0.6c0,0.4,0.3,0.7,0.7,0.7c0.4,0,0.7-0.3,0.7-0.7c0-0.9-0.6-1.6-1.5-1.9V7.6c0-0.4-0.3-0.7-0.7-0.7   s-0.7,0.3-0.7,0.7v0.1c-0.8,0.3-1.4,1.1-1.4,1.9c0,1.3,1,1.8,1.7,2.2c0.8,0.4,1,0.6,1,0.9c0,0.3-0.3,0.6-0.6,0.6   c-0.4,0-0.7-0.2-0.7-0.6c0-0.4-0.3-0.7-0.7-0.7c-0.4,0-0.7,0.3-0.7,0.7c0,0.9,0.6,1.6,1.5,1.9v0.1c0,0.4,0.3,0.7,0.7,0.7   S25.7,15.2,25.7,14.8z"/>
</g>
</svg>