<svg xmlns:x="http://ns.adobe.com/Extensibility/1.0/" xmlns:i="http://ns.adobe.com/AdobeIllustrator/10.0/" xmlns:graph="http://ns.adobe.com/Graphs/1.0/" xmlns="http://www.w3.org/2000/svg" xmlns:xlink="http://www.w3.org/1999/xlink" xmlns:a="http://ns.adobe.com/AdobeSVGViewerExtensions/3.0/" version="1.1" id="Capa_1" x="0px" y="0px" width="50" height="50" viewBox="0 0 50 50" style="enable-background:new 0 0 50 50;" xml:space="preserve">
<style type="text/css">
<![CDATA[
	.st0{fill:url(#SVGID_1_);}
	.st1{fill:url(#SVGID_2_);}
	.st2{fill:url(#SVGID_3_);}
	.st3{fill:url(#SVGID_4_);}
	.st4{fill:url(#SVGID_5_);}
	.st5{fill:url(#SVGID_6_);}
	.st6{fill:url(#SVGID_7_);}
	.st7{fill:url(#SVGID_8_);}
	.st8{fill:url(#SVGID_9_);}
	.st9{fill:url(#SVGID_10_);}
	.st10{fill:url(#SVGID_11_);}
]]>
</style>
<metadata>
	<sfw xmlns="http://ns.adobe.com/SaveForWeb/1.0/">
		<slices/>
		<sliceSourceBounds height="43.9" width="45" x="2" y="3.5" bottomLeftOrigin="true"/>
	</sfw>
</metadata>
<g>
	
		<linearGradient id="SVGID_1_" gradientUnits="userSpaceOnUse" x1="310.1709" y1="-389.3091" x2="310.1709" y2="-360.96" gradientTransform="matrix(1 0 0 -1 -272.6602 -344.96)">
		<stop offset="0" style="stop-color:#774DC3"/>
		<stop offset="1" style="stop-color:#966AE6"/>
		<a:midPointStop offset="0" style="stop-color:#774DC3"/>
		<a:midPointStop offset="0.5" style="stop-color:#774DC3"/>
		<a:midPointStop offset="1" style="stop-color:#966AE6"/>
	</linearGradient>
	<path class="st0" d="M46.9,16c-0.4,0-0.6,0.3-0.6,0.6v25.8c0,0.4-0.3,0.6-0.6,0.6H28.2c-0.4,0-0.6,0.3-0.6,0.6   c0,0.4,0.3,0.6,0.6,0.6h17.5c1.1,0,1.9-0.8,1.9-1.9V16.6C47.5,16.4,47.2,16,46.9,16z"/>
	
		<linearGradient id="SVGID_2_" gradientUnits="userSpaceOnUse" x1="297.6602" y1="-389.3091" x2="297.6602" y2="-348" gradientTransform="matrix(1 0 0 -1 -272.6602 -344.96)">
		<stop offset="0" style="stop-color:#774DC3"/>
		<stop offset="1" style="stop-color:#966AE6"/>
		<a:midPointStop offset="0" style="stop-color:#774DC3"/>
		<a:midPointStop offset="0.5" style="stop-color:#774DC3"/>
		<a:midPointStop offset="1" style="stop-color:#966AE6"/>
	</linearGradient>
	<path class="st1" d="M45.6,3H4.4C3.3,3,2.5,3.9,2.5,4.9v37.5c0,1.1,0.8,1.9,1.9,1.9h1.7c0.4,0,0.6-0.3,0.6-0.6   c0-0.4-0.3-0.6-0.6-0.6H4.4c-0.4,0-0.6-0.3-0.6-0.6V4.9c0-0.3,0.3-0.6,0.6-0.6h41.2c0.4,0,0.6,0.3,0.6,0.6v7.7   c0,0.4,0.3,0.6,0.6,0.6c0.4,0,0.6-0.3,0.6-0.6V4.9C47.5,3.9,46.7,3,45.6,3z"/>
	
		<linearGradient id="SVGID_3_" gradientUnits="userSpaceOnUse" x1="289.5156" y1="-391.9194" x2="289.5156" y2="-373.2488" gradientTransform="matrix(1 0 0 -1 -272.6602 -344.96)">
		<stop offset="0" style="stop-color:#774DC3"/>
		<stop offset="1" style="stop-color:#966AE6"/>
		<a:midPointStop offset="0" style="stop-color:#774DC3"/>
		<a:midPointStop offset="0.5" style="stop-color:#774DC3"/>
		<a:midPointStop offset="1" style="stop-color:#966AE6"/>
	</linearGradient>
	<path class="st2" d="M27.7,30c0-1-0.8-1.8-1.8-1.8h-0.3H7.8C6.8,28.2,6,29,6,30s0.8,1.8,1.8,1.8h1.1L7.5,45.3   c0,0.5,0.1,0.8,0.4,1.1C8.1,46.8,8.5,47,9,47h16.1c0.5,0,0.9-0.2,1.2-0.5c0.3-0.3,0.4-0.7,0.4-1.1l-1.4-13.5h0.7   C27,31.8,27.7,31,27.7,30z M7.8,30.5c-0.3,0-0.5-0.2-0.5-0.4s0.2-0.5,0.5-0.5h1.4l-0.1,1L7.8,30.5L7.8,30.5z M9.1,45.7   c-0.1,0-0.2,0-0.2-0.1v-0.1l1.7-15.9h7.2l0.7,16.1H9.1z M19.8,45.7L19,29.6h1.6l1.3,16.1H19.8z M25.5,45.5L25.5,45.5   c-0.1,0.2-0.1,0.2-0.2,0.2h-2.1l-1.3-16.1h1.9L25.5,45.5z M25.1,30.5L25,29.6h1c0.3,0,0.5,0.2,0.5,0.5s-0.2,0.4-0.5,0.4H25.1z"/>
	
		<linearGradient id="SVGID_4_" gradientUnits="userSpaceOnUse" x1="306.5254" y1="-379.0127" x2="306.5254" y2="-373.2306" gradientTransform="matrix(1 0 0 -1 -272.6602 -344.96)">
		<stop offset="0" style="stop-color:#774DC3"/>
		<stop offset="1" style="stop-color:#966AE6"/>
		<a:midPointStop offset="0" style="stop-color:#774DC3"/>
		<a:midPointStop offset="0.5" style="stop-color:#774DC3"/>
		<a:midPointStop offset="1" style="stop-color:#966AE6"/>
	</linearGradient>
	<path class="st3" d="M36.8,29.5c0-0.7-0.5-1.3-1.3-1.3h-3.3c-0.7,0-1.3,0.5-1.3,1.3v3.3c0,0.7,0.5,1.3,1.3,1.3h3.3   c0.7,0,1.3-0.5,1.3-1.3V29.5z M35.5,32.7h-3.2v-3.2h3.2V32.7z"/>
	
		<linearGradient id="SVGID_5_" gradientUnits="userSpaceOnUse" x1="313.7256" y1="-379.0127" x2="313.7256" y2="-373.2306" gradientTransform="matrix(1 0 0 -1 -272.6602 -344.96)">
		<stop offset="0" style="stop-color:#774DC3"/>
		<stop offset="1" style="stop-color:#966AE6"/>
		<a:midPointStop offset="0" style="stop-color:#774DC3"/>
		<a:midPointStop offset="0.5" style="stop-color:#774DC3"/>
		<a:midPointStop offset="1" style="stop-color:#966AE6"/>
	</linearGradient>
	<path class="st4" d="M43.9,29.5c0-0.7-0.5-1.3-1.3-1.3h-3.2c-0.7,0-1.3,0.5-1.3,1.3v3.3c0,0.7,0.5,1.3,1.3,1.3h3.3   c0.7,0,1.3-0.5,1.3-1.3L43.9,29.5L43.9,29.5z M42.6,32.7h-3.2v-3.2h3.2V32.7z"/>
	
		<linearGradient id="SVGID_6_" gradientUnits="userSpaceOnUse" x1="306.5254" y1="-386.0034" x2="306.5254" y2="-380.2223" gradientTransform="matrix(1 0 0 -1 -272.6602 -344.96)">
		<stop offset="0" style="stop-color:#774DC3"/>
		<stop offset="1" style="stop-color:#966AE6"/>
		<a:midPointStop offset="0" style="stop-color:#774DC3"/>
		<a:midPointStop offset="0.5" style="stop-color:#774DC3"/>
		<a:midPointStop offset="1" style="stop-color:#966AE6"/>
	</linearGradient>
	<path class="st5" d="M35.5,35.3h-3.3c-0.7,0-1.3,0.5-1.3,1.3v3.3c0,0.7,0.5,1.3,1.3,1.3h3.3c0.7,0,1.3-0.5,1.3-1.3v-3.3   C36.8,35.8,36.3,35.3,35.5,35.3z M35.5,39.8h-3.2v-3.2h3.2V39.8z"/>
	
		<linearGradient id="SVGID_7_" gradientUnits="userSpaceOnUse" x1="313.7256" y1="-386.0034" x2="313.7256" y2="-380.2223" gradientTransform="matrix(1 0 0 -1 -272.6602 -344.96)">
		<stop offset="0" style="stop-color:#774DC3"/>
		<stop offset="1" style="stop-color:#966AE6"/>
		<a:midPointStop offset="0" style="stop-color:#774DC3"/>
		<a:midPointStop offset="0.5" style="stop-color:#774DC3"/>
		<a:midPointStop offset="1" style="stop-color:#966AE6"/>
	</linearGradient>
	<path class="st6" d="M42.7,35.3h-3.3c-0.7,0-1.3,0.5-1.3,1.3v3.3c0,0.7,0.5,1.3,1.3,1.3h3.3c0.7,0,1.3-0.5,1.3-1.3v-3.3   C43.9,35.8,43.4,35.3,42.7,35.3z M42.6,39.8h-3.2v-3.2h3.2V39.8z"/>
	
		<linearGradient id="SVGID_8_" gradientUnits="userSpaceOnUse" x1="297.6611" y1="-369.7593" x2="297.6611" y2="-351.6389" gradientTransform="matrix(1 0 0 -1 -272.6602 -344.96)">
		<stop offset="0" style="stop-color:#774DC3"/>
		<stop offset="1" style="stop-color:#966AE6"/>
		<a:midPointStop offset="0" style="stop-color:#774DC3"/>
		<a:midPointStop offset="0.5" style="stop-color:#774DC3"/>
		<a:midPointStop offset="1" style="stop-color:#966AE6"/>
	</linearGradient>
	<path class="st7" d="M43.9,8.5c0-1-0.8-1.8-1.8-1.8H7.9c-1,0-1.8,0.8-1.8,1.8v14.4c0,1,0.8,1.8,1.8,1.8h34.2c1,0,1.8-0.8,1.8-1.8   V8.5z M42.6,22.9c0,0.3-0.3,0.5-0.5,0.5H7.9c-0.3,0-0.5-0.3-0.5-0.5V8.5C7.4,8.3,7.6,8,7.9,8h34.2c0.3,0,0.5,0.3,0.5,0.5V22.9z"/>
	
		<linearGradient id="SVGID_9_" gradientUnits="userSpaceOnUse" x1="288.6602" y1="-364.6323" x2="288.6602" y2="-356.9662" gradientTransform="matrix(1 0 0 -1 -272.6602 -344.96)">
		<stop offset="0" style="stop-color:#774DC3"/>
		<stop offset="1" style="stop-color:#966AE6"/>
		<a:midPointStop offset="0" style="stop-color:#774DC3"/>
		<a:midPointStop offset="0.5" style="stop-color:#774DC3"/>
		<a:midPointStop offset="1" style="stop-color:#966AE6"/>
	</linearGradient>
	<path class="st8" d="M17,12.6c-0.1-0.4-0.5-0.5-1.1-0.5c-0.5,0-1,0.2-1.1,0.5L12.9,19v0.1c0,0.4,0.6,0.6,1.1,0.6   c0.3,0,0.4-0.1,0.5-0.3l0.4-1.3h2.2l0.4,1.3c0.1,0.2,0.3,0.3,0.5,0.3c0.5,0,1.1-0.3,1.1-0.6V19L17,12.6z M15.2,16.8l0.7-2.8   l0.7,2.8H15.2z"/>
	
		<linearGradient id="SVGID_10_" gradientUnits="userSpaceOnUse" x1="296.9521" y1="-364.6323" x2="296.9521" y2="-357.0286" gradientTransform="matrix(1 0 0 -1 -272.6602 -344.96)">
		<stop offset="0" style="stop-color:#774DC3"/>
		<stop offset="1" style="stop-color:#966AE6"/>
		<a:midPointStop offset="0" style="stop-color:#774DC3"/>
		<a:midPointStop offset="0.5" style="stop-color:#774DC3"/>
		<a:midPointStop offset="1" style="stop-color:#966AE6"/>
	</linearGradient>
	<path class="st9" d="M26.5,12H22c-0.4,0-0.5,0.4-0.5,0.7s0.2,0.7,0.5,0.7h1.4v5.7c0,0.4,0.5,0.5,0.8,0.5c0.4,0,0.8-0.2,0.8-0.5   v-5.7h1.4c0.3,0,0.5-0.4,0.5-0.7C27.1,12.4,26.9,12,26.5,12z"/>
	
		<linearGradient id="SVGID_11_" gradientUnits="userSpaceOnUse" x1="306.6611" y1="-364.6323" x2="306.6611" y2="-357.0286" gradientTransform="matrix(1 0 0 -1 -272.6602 -344.96)">
		<stop offset="0" style="stop-color:#774DC3"/>
		<stop offset="1" style="stop-color:#966AE6"/>
		<a:midPointStop offset="0" style="stop-color:#774DC3"/>
		<a:midPointStop offset="0.5" style="stop-color:#774DC3"/>
		<a:midPointStop offset="1" style="stop-color:#966AE6"/>
	</linearGradient>
	<path class="st10" d="M36.3,12c-0.5,0-0.8,0.1-1.3,0.8l-1,1.9l-1.1-1.9c-0.5-0.7-0.7-0.8-1.3-0.8c-0.5,0-0.8,0.2-0.8,0.8v6.3   c0,0.4,0.5,0.5,0.8,0.5c0.5,0,0.8-0.2,0.8-0.5v-4l1,1.8c0.1,0.3,0.4,0.3,0.5,0.3s0.5-0.1,0.5-0.3l1-1.7v3.9c0,0.4,0.5,0.5,0.8,0.5   c0.4,0,0.8-0.2,0.8-0.5v-6.3C37.1,12.3,36.7,12,36.3,12z"/>
</g>
</svg>