<svg xmlns:x="http://ns.adobe.com/Extensibility/1.0/" xmlns:i="http://ns.adobe.com/AdobeIllustrator/10.0/" xmlns:graph="http://ns.adobe.com/Graphs/1.0/" xmlns="http://www.w3.org/2000/svg" xmlns:xlink="http://www.w3.org/1999/xlink" xmlns:a="http://ns.adobe.com/AdobeSVGViewerExtensions/3.0/" version="1.1" id="Capa_1" x="0px" y="0px" width="50" height="50" viewBox="0 0 50 50" style="enable-background:new 0 0 50 50;" xml:space="preserve">
<style type="text/css">
<![CDATA[
	.st0{fill:url(#SVGID_1_);}
	.st1{fill:url(#SVGID_2_);}
]]>
</style>
<metadata>
	<sfw xmlns="http://ns.adobe.com/SaveForWeb/1.0/">
		<slices/>
		<sliceSourceBounds height="37.2" width="45" x="1.9" y="6.9" bottomLeftOrigin="true"/>
	</sfw>
</metadata>
<g>
	
		<linearGradient id="SVGID_1_" gradientUnits="userSpaceOnUse" x1="297.6602" y1="-377.9136" x2="297.6602" y2="-356.2163" gradientTransform="matrix(1 0 0 -1 -272.6602 -344.96)">
		<stop offset="0" style="stop-color:#3066B1"/>
		<stop offset="1" style="stop-color:#4B7FC7"/>
		<a:midPointStop offset="0" style="stop-color:#3066B1"/>
		<a:midPointStop offset="0.5" style="stop-color:#3066B1"/>
		<a:midPointStop offset="1" style="stop-color:#4B7FC7"/>
	</linearGradient>
	<path class="st0" d="M26.8,20.6c-0.4-0.1-0.9-0.2-1.6-0.4c-1.1-0.2-1.9-0.5-2.2-0.9c-0.2-0.2-0.3-0.4-0.4-0.6   c-0.1-0.2-0.1-0.4-0.1-0.7c0-0.7,0.2-1.3,0.7-1.7c0.5-0.4,1.1-0.6,1.9-0.6c0.7,0,1.3,0.2,1.8,0.6c0.5,0.4,0.7,0.9,0.8,1.6h2.5   c-0.1-1.2-0.5-2.1-1.1-2.8c-0.7-0.7-1.6-1.2-2.7-1.3v-2.4H24v2.4c-1.3,0.2-2.2,0.7-3,1.5c-0.7,0.7-1,1.7-1,2.9c0,1.1,0.4,2,1.1,2.7   c0.8,0.7,1.9,1.2,3.5,1.6c0.1,0,0.3,0.1,0.5,0.1c1.3,0.3,2.1,0.7,2.5,1.3c0.1,0.2,0.2,0.4,0.3,0.6C28,24.7,28,25,28,25.3   c0,0.8-0.3,1.5-0.8,2C26.6,27.7,25.9,28,25,28c-1,0-1.8-0.2-2.3-0.7s-0.8-1.1-0.9-2h-2.4c0,1.3,0.4,2.5,1.3,3.3   c0.8,0.9,1.9,1.4,3.3,1.6V33h2.3v-3c1.3-0.2,2.3-0.7,3.1-1.6c0.8-0.9,1.2-2.1,1.2-3.4c0-1.1-0.3-2-1-2.7C29,21.6,28,21,26.8,20.6z"/>
	
		<linearGradient id="SVGID_2_" gradientUnits="userSpaceOnUse" x1="297.5645" y1="-388.5137" x2="297.5645" y2="-351.4058" gradientTransform="matrix(1 0 0 -1 -272.6602 -344.96)">
		<stop offset="0" style="stop-color:#3066B1"/>
		<stop offset="1" style="stop-color:#4B7FC7"/>
		<a:midPointStop offset="0" style="stop-color:#3066B1"/>
		<a:midPointStop offset="0.5" style="stop-color:#3066B1"/>
		<a:midPointStop offset="1" style="stop-color:#4B7FC7"/>
	</linearGradient>
	<path class="st1" d="M47.4,35.1V9.4c0-1.6-1.3-3-3-3h-39c-1.6,0-3,1.4-3,3v25.7c0,1.6,1.4,3,3,3h14.2v3.1h-2.5   c-0.7,0-1.2,0.5-1.2,1.2c0,0.7,0.5,1.2,1.2,1.2h15.8c0.7,0,1.2-0.5,1.2-1.2c0-0.7-0.5-1.2-1.2-1.2h-2.5V38h14.1   C46.2,38,47.5,36.7,47.4,35.1L47.4,35.1z M44.7,35.1v0.2c-0.1,0-0.1,0.1-0.2,0.1h-39c-0.1,0-0.3-0.1-0.3-0.3V9.4   c0-0.1,0.1-0.3,0.3-0.3h39c0.1,0,0.3,0.1,0.3,0.3L44.7,35.1L44.7,35.1z"/>
</g>
</svg>