<svg xmlns="http://www.w3.org/2000/svg" xmlns:xlink="http://www.w3.org/1999/xlink" version="1.1" id="Capa_1" x="0px" y="0px" width="50" height="50" viewBox="0 0 50 50" style="enable-background:new 0 0 50 50;" xml:space="preserve">
<style type="text/css">
	.st0{display:none;fill:#04BE04;}
	.st1{display:none;}
	.st2{display:inline;}
	.st3{fill:#EE0033;}
	.st4{fill:#FFFFFF;}
</style>
<path class="st0" d="M37.9,26H25.4h-3.6H9.4c-1.1,0-2,0.9-2,2v0.4V44v0.4c0,1.1,0.9,2,2,2h12.4h3.6h12.4c1.1,0,2-0.9,2-2V44V28.4V28  C39.9,26.9,39,26,37.9,26z"/>
<g class="st1">
	<path class="st2" d="M38.1,33.2c-0.7-0.3-1.6,0-1.9,0.8l-1.9,4.7L32.8,35l-0.4-1c-0.3-0.7-1.1-1.1-1.9-0.8   c-0.7,0.3-1.1,1.1-0.8,1.9l0.4,1l0.2,0.4c0,0.1,0,0.1,0.1,0.2l0.3,0.9l1.7,4.1l0.3,0.9l-0.8,1.9l0,0l-0.1,0.3   c-0.3,0.7,0,1.6,0.8,1.9c0.7,0.3,1.6,0,1.9-0.8l4.3-10.4l0,0l0.1-0.3C39.2,34.4,38.9,33.5,38.1,33.2z"/>
	<path class="st2" d="M15,29.4L15,29.4h-4.3h-0.1h-0.1l0,0l0,0c-0.7,0.1-1.3,0.7-1.3,1.4V42c0,0.8,0.6,1.4,1.4,1.4S12,42.8,12,42   v-3.4h2.9l0,0c2.4-0.1,4.3-2.1,4.3-4.6S17.3,29.6,15,29.4z M13.9,36.2L13.9,36.2L13.9,36.2H12v-4.4h1.9l0,0l0,0   c1.2,0,2.2,1,2.2,2.2C16.2,35.2,15.2,36.2,13.9,36.2z"/>
	<path class="st2" d="M27.6,33.2c-0.7,0-1.3,0.5-1.4,1.2c-0.8-0.8-1.7-1.3-2.8-1.3c-2.3,0-4.2,2.3-4.2,5.1s1.9,5.1,4.2,5.1   c1.1,0,2.1-0.5,2.8-1.3c0.1,0.7,0.7,1.1,1.4,1.1c0.8,0,1.4-0.6,1.4-1.4v-1v-5v-1C29.1,33.8,28.4,33.2,27.6,33.2z M24.1,40.6   c-1.2,0-2.1-1.1-2.1-2.4c0-1.3,0.9-2.4,2.1-2.4s2.1,1.1,2.1,2.4S25.2,40.6,24.1,40.6z"/>
</g>
<g>
	<circle class="st3" cx="25" cy="25" r="25"/>
	<g>
		<path class="st4" d="M23.1,36.9h-6V13.1h6v-4h-5c-1.3,0-2.4,1.1-2.4,2.4v27c0,1.3,1.1,2.4,2.4,2.4h5V36.9z"/>
		<path class="st4" d="M31.9,9.1h-5v4h6v23.9h-6v4h5c1.3,0,2.4-1.1,2.4-2.4v-27C34.3,10.2,33.2,9.1,31.9,9.1z"/>
	</g>
</g>
</svg>