<svg xmlns:x="http://ns.adobe.com/Extensibility/1.0/" xmlns:i="http://ns.adobe.com/AdobeIllustrator/10.0/" xmlns:graph="http://ns.adobe.com/Graphs/1.0/" xmlns="http://www.w3.org/2000/svg" xmlns:xlink="http://www.w3.org/1999/xlink" xmlns:a="http://ns.adobe.com/AdobeSVGViewerExtensions/3.0/" version="1.1" id="Capa_1" x="0px" y="0px" width="50" height="50" viewBox="0 0 50 50" style="enable-background:new 0 0 50 50;" xml:space="preserve">
<style type="text/css">
<![CDATA[
	.st0{fill:url(#SVGID_1_);}
	.st1{fill:url(#SVGID_2_);}
	.st2{fill:url(#SVGID_3_);}
	.st3{fill:url(#SVGID_4_);}
]]>
</style>
<metadata>
	<sfw xmlns="http://ns.adobe.com/SaveForWeb/1.0/">
		<slices/>
		<sliceSourceBounds height="50" width="41.7" x="3.7" y="0.5" bottomLeftOrigin="true"/>
	</sfw>
</metadata>
<g>
	<linearGradient id="SVGID_1_" gradientUnits="userSpaceOnUse" x1="24.9995" y1="3.125" x2="24.9995" y2="5.2085">
		<stop offset="0" style="stop-color:#4CC7A9"/>
		<stop offset="1" style="stop-color:#2FAC8E"/>
		<a:midPointStop offset="0" style="stop-color:#4CC7A9"/>
		<a:midPointStop offset="0.5" style="stop-color:#4CC7A9"/>
		<a:midPointStop offset="1" style="stop-color:#2FAC8E"/>
	</linearGradient>
	<rect x="21.9" y="3.1" class="st0" width="6.3" height="2.1"/>
	<linearGradient id="SVGID_2_" gradientUnits="userSpaceOnUse" x1="24.9995" y1="0" x2="24.9995" y2="50.0005">
		<stop offset="0" style="stop-color:#4CC7A9"/>
		<stop offset="1" style="stop-color:#2FAC8E"/>
		<a:midPointStop offset="0" style="stop-color:#4CC7A9"/>
		<a:midPointStop offset="0.5" style="stop-color:#4CC7A9"/>
		<a:midPointStop offset="1" style="stop-color:#2FAC8E"/>
	</linearGradient>
	<path class="st1" d="M44.8,17.7c-1.4,0-3.6,0.5-5.2,2V3.1c0-1.7-1.4-3.1-3.1-3.1H13.5c-1.7,0-3.1,1.4-3.1,3.1v12.5H7.3   c-1.7,0-3.1,1.4-3.1,3.1v2.1c0,0.8,0.3,1.5,0.8,2.1c-0.5,0.6-0.8,1.3-0.8,2.1v2.1c0,0.8,0.3,1.5,0.8,2.1c-0.5,0.6-0.8,1.3-0.8,2.1   v2.1c0,0.8,0.3,1.5,0.8,2.1c-0.5,0.6-0.8,1.3-0.8,2.1v2.1c0,1.7,1.4,3.1,3.1,3.1h3.1v4.2c0,1.7,1.4,3.1,3.1,3.1h22.9   c1.7,0,3.1-1.4,3.1-3.1V24.3c0.2-2.2,1.9-4.1,4.2-4.4V49h2.1V18.8C45.8,18.2,45.4,17.7,44.8,17.7z M10.4,40.6H7.3c-0.6,0-1-0.5-1-1   v-2.1c0-0.6,0.5-1,1-1h3.1V40.6z M10.4,34.4H7.3c-0.6,0-1-0.5-1-1v-2.1c0-0.6,0.5-1,1-1h3.1V34.4z M10.4,28.1H7.3c-0.6,0-1-0.5-1-1   V25c0-0.6,0.5-1,1-1h3.1V28.1z M10.4,21.9H7.3c-0.6,0-1-0.5-1-1v-2.1c0-0.6,0.5-1,1-1h3.1V21.9z M37.5,46.9c0,0.6-0.5,1-1,1H13.5   c-0.6,0-1-0.5-1-1v-3.1h25V46.9z M37.5,41.7h-25v-6.3v-6.3v-6.2v-6.3V8.3h25V41.7z M37.5,6.3h-25V3.1c0-0.6,0.5-1,1-1h22.9   c0.6,0,1,0.5,1,1V6.3z"/>
	<linearGradient id="SVGID_3_" gradientUnits="userSpaceOnUse" x1="24.9995" y1="14.5835" x2="24.9995" y2="35.4165">
		<stop offset="0" style="stop-color:#4CC7A9"/>
		<stop offset="1" style="stop-color:#2FAC8E"/>
		<a:midPointStop offset="0" style="stop-color:#4CC7A9"/>
		<a:midPointStop offset="0.5" style="stop-color:#4CC7A9"/>
		<a:midPointStop offset="1" style="stop-color:#2FAC8E"/>
	</linearGradient>
	<path class="st2" d="M25,35.4c5.8,0,10.4-4.7,10.4-10.4c0-5.8-4.7-10.4-10.4-10.4S14.6,19.2,14.6,25S19.2,35.4,25,35.4z M25,16.7   c4.6,0,8.3,3.7,8.3,8.3c0,4.6-3.7,8.3-8.3,8.3s-8.3-3.7-8.3-8.3S20.4,16.7,25,16.7z"/>
	<linearGradient id="SVGID_4_" gradientUnits="userSpaceOnUse" x1="24.9995" y1="18.75" x2="24.9995" y2="31.2505">
		<stop offset="0" style="stop-color:#4CC7A9"/>
		<stop offset="1" style="stop-color:#2FAC8E"/>
		<a:midPointStop offset="0" style="stop-color:#4CC7A9"/>
		<a:midPointStop offset="0.5" style="stop-color:#4CC7A9"/>
		<a:midPointStop offset="1" style="stop-color:#2FAC8E"/>
	</linearGradient>
	<path class="st3" d="M25,28.1c-0.6,0-1-0.5-1-1h-2.1c0,1.4,0.9,2.5,2.1,2.9v1.2H26V30c1.2-0.4,2.1-1.6,2.1-2.9   c0-1.7-1.4-3.1-3.1-3.1c-0.6,0-1-0.5-1-1s0.5-1,1-1s1,0.5,1,1h2.1c0-1.4-0.9-2.5-2.1-2.9v-1.2H24V20c-1.2,0.4-2.1,1.6-2.1,2.9   c0,1.7,1.4,3.1,3.1,3.1c0.6,0,1,0.5,1,1C26,27.7,25.6,28.1,25,28.1z"/>
</g>
</svg>