<?xml version="1.0" encoding="utf-8"?>
<!-- Generator: Adobe Illustrator 26.0.3, SVG Export Plug-In . SVG Version: 6.00 Build 0)  -->
<svg version="1.1" id="圖層_1" xmlns="http://www.w3.org/2000/svg" xmlns:xlink="http://www.w3.org/1999/xlink" x="0px" y="0px"
	 width="34px" height="34px" viewBox="0 0 34 34" style="enable-background:new 0 0 34 34;" xml:space="preserve">
<style type="text/css">
	.st0{fill:#FFC053;}
</style>
<path class="st0" d="M31.7,15.9c0.9-0.8,1.3-2.3,1.3-4.4c0-2-1.3-3.8-3.2-4.6c-1.3-0.5-5.9-1.8-11.7-1.8h-2.1
	C10.2,5.3,5.5,6.5,4.2,7C2.3,7.7,1,9.5,1,11.6c0,2.1,0.4,3.6,1.3,4.4c0.5,0.4,1,0.6,1.7,0.6c0.1,0,0.2,0,0.3,0c0.1,0,0.2,0,0.3,0
	l-0.1,0.4C4,20,3.4,23,3.4,24.1c-0.1,1.2,0.3,2.5,1,3.3c0.5,0.6,1.4,1.3,2.8,1.3h19.6c1.5,0,2.4-0.7,2.8-1.3c0.7-0.9,1.1-2.1,1-3.3
	C30.6,23,30,20,29.4,16.9l-0.1-0.4c0.1,0,0.2,0,0.3,0C30.4,16.6,31.1,16.4,31.7,15.9z M4.1,14.7c-0.3,0-0.5-0.1-0.6-0.1
	c-0.4-0.4-0.7-1.5-0.7-3c0-1.5,1-2.4,2-2.8c1.1-0.4,5.6-1.6,11-1.6h2.1c5.5,0,9.9,1.2,11,1.6c1,0.4,2,1.3,2,2.8c0,1.5-0.3,2.6-0.7,3
	c-0.1,0.1-0.2,0.2-0.6,0.1c-1.7-0.2-2.9-0.4-3.7-0.8c-0.5-0.2-0.9-0.7-0.9-1c0-1.2-1.1-3.3-2.7-3.6c-1.4-0.3-3-0.5-4.4-0.5h-2.3
	c-1.4,0-3,0.2-4.4,0.5c-1.6,0.4-2.7,2.5-2.7,3.6c0,0.3-0.4,0.8-0.9,1C7.1,14.2,5.8,14.5,4.1,14.7z M27.4,16.5l0.2,0.9
	c0.3,1.6,1.1,5.8,1.2,6.9c0,0.5-0.1,1.2-0.5,1.7c-0.3,0.4-0.8,0.6-1.5,0.6H7.2c-0.6,0-1.1-0.2-1.5-0.6c-0.4-0.5-0.5-1.2-0.5-1.7
	c0.1-1,0.9-5.3,1.2-6.9l0.2-0.9c0-0.2,0.2-0.3,0.4-0.4H7c0.6-0.1,1.2-0.3,1.6-0.5c1-0.4,2.1-1.5,2.1-2.7c0-0.4,0.6-1.7,1.3-1.8
	c1.2-0.3,2.7-0.5,3.9-0.5h2.3c1.2,0,2.7,0.2,3.9,0.5c0.7,0.2,1.3,1.4,1.3,1.8c0,1.2,1.1,2.3,2.1,2.7c0.4,0.2,1,0.3,1.6,0.5H27
	C27.2,16.2,27.4,16.3,27.4,16.5z"/>
<g>
	<path class="st0" d="M17,24.2c-2.7,0-5-2.2-5-5s2.2-5,5-5s5,2.2,5,5S19.7,24.2,17,24.2z M17,16.1c-1.7,0-3.1,1.4-3.1,3.1
		c0,1.7,1.4,3.1,3.1,3.1c1.7,0,3.1-1.4,3.1-3.1C20.1,17.5,18.7,16.1,17,16.1z"/>
</g>
</svg>
