<svg xmlns="http://www.w3.org/2000/svg" xmlns:xlink="http://www.w3.org/1999/xlink" version="1.1" id="圖層_1" x="0px" y="0px" width="50" height="50" viewBox="0 0 50 50" style="enable-background:new 0 0 50 50;" xml:space="preserve">
<style type="text/css">
	.st0{fill:#2782D7;}
</style>
<g>
	<path class="st0" d="M42.7,7.3C38,2.7,31.7,0,25,0S12,2.7,7.3,7.3C2.7,12,0,18.3,0,25s2.7,13,7.3,17.7c4.8,4.8,11,7.3,17.7,7.3   s13-2.7,17.7-7.3c4.6-4.8,7.3-11,7.3-17.7S47.3,12,42.7,7.3z M25,47.2c-12.2,0-22.2-10-22.2-22.2S12.8,2.8,25,2.8   s22.2,10,22.2,22.2S37.2,47.2,25,47.2z"/>
	<path class="st0" d="M25.1,8.4c-1.1,0-2.2,0.3-3.1,1.4c-1.1,1.3-1.4,3.2-0.6,4.8c0.8,1.4,2.3,2.1,3.9,2c1.3,0,2.6-0.8,3.1-2.2   c0.7-1.2,0.6-3-0.2-4.1C27.3,9.2,26.2,8.6,25.1,8.4z"/>
	<rect x="21.9" y="19.4" class="st0" width="6.1" height="21.9"/>
</g>
</svg>