<svg xmlns:x="http://ns.adobe.com/Extensibility/1.0/" xmlns:i="http://ns.adobe.com/AdobeIllustrator/10.0/" xmlns:graph="http://ns.adobe.com/Graphs/1.0/" xmlns="http://www.w3.org/2000/svg" xmlns:xlink="http://www.w3.org/1999/xlink" xmlns:a="http://ns.adobe.com/AdobeSVGViewerExtensions/3.0/" version="1.1" id="Capa_1" x="0px" y="0px" width="50" height="50" viewBox="0 0 50 50" style="enable-background:new 0 0 50 50;" xml:space="preserve">
<style type="text/css">
<![CDATA[
	.st0{fill:url(#SVGID_1_);}
	.st1{fill:url(#SVGID_2_);}
	.st2{fill:url(#SVGID_3_);}
	.st3{fill:url(#SVGID_4_);}
	.st4{fill:url(#SVGID_5_);}
	.st5{fill:url(#SVGID_6_);}
	.st6{fill:url(#SVGID_7_);}
	.st7{fill:url(#SVGID_8_);}
	.st8{fill:url(#SVGID_9_);}
	.st9{fill:url(#SVGID_10_);}
	.st10{fill:url(#SVGID_11_);}
]]>
</style>
<metadata>
	<sfw xmlns="http://ns.adobe.com/SaveForWeb/1.0/">
		<slices/>
		<sliceSourceBounds height="45" width="45" x="2" y="3" bottomLeftOrigin="true"/>
	</sfw>
</metadata>
<g>
	<linearGradient id="SVGID_1_" gradientUnits="userSpaceOnUse" x1="12.3999" y1="22.2998" x2="12.3999" y2="2.5">
		<stop offset="0" style="stop-color:#CC3C3C"/>
		<stop offset="1" style="stop-color:#E56F6F"/>
		<a:midPointStop offset="0" style="stop-color:#CC3C3C"/>
		<a:midPointStop offset="0.5" style="stop-color:#CC3C3C"/>
		<a:midPointStop offset="1" style="stop-color:#E56F6F"/>
	</linearGradient>
	<path class="st0" d="M20.9,2.5h-17c-0.8,0-1.4,0.6-1.4,1.4v17c0,0.8,0.6,1.4,1.4,1.4h17c0.8,0,1.4-0.6,1.4-1.4v-17   C22.3,3.1,21.7,2.5,20.9,2.5z M19.6,19.6H5.2V5.2h14.4V19.6z"/>
	<linearGradient id="SVGID_2_" gradientUnits="userSpaceOnUse" x1="12.3999" y1="13.75" x2="12.3999" y2="11.0498">
		<stop offset="0" style="stop-color:#CC3C3C"/>
		<stop offset="1" style="stop-color:#E56F6F"/>
		<a:midPointStop offset="0" style="stop-color:#CC3C3C"/>
		<a:midPointStop offset="0.5" style="stop-color:#CC3C3C"/>
		<a:midPointStop offset="1" style="stop-color:#E56F6F"/>
	</linearGradient>
	<circle class="st1" cx="12.4" cy="12.4" r="1.4"/>
	<linearGradient id="SVGID_3_" gradientUnits="userSpaceOnUse" x1="12.3999" y1="47.5" x2="12.3999" y2="27.7002">
		<stop offset="0" style="stop-color:#CC3C3C"/>
		<stop offset="1" style="stop-color:#E56F6F"/>
		<a:midPointStop offset="0" style="stop-color:#CC3C3C"/>
		<a:midPointStop offset="0.5" style="stop-color:#CC3C3C"/>
		<a:midPointStop offset="1" style="stop-color:#E56F6F"/>
	</linearGradient>
	<path class="st2" d="M20.9,27.7h-17c-0.8,0-1.4,0.6-1.4,1.4v17c0,0.8,0.6,1.4,1.4,1.4h17c0.8,0,1.4-0.6,1.4-1.4v-17   C22.3,28.3,21.7,27.7,20.9,27.7z M19.6,44.8H5.2V30.4h14.4V44.8z"/>
	<linearGradient id="SVGID_4_" gradientUnits="userSpaceOnUse" x1="12.3999" y1="38.9502" x2="12.3999" y2="36.25">
		<stop offset="0" style="stop-color:#CC3C3C"/>
		<stop offset="1" style="stop-color:#E56F6F"/>
		<a:midPointStop offset="0" style="stop-color:#CC3C3C"/>
		<a:midPointStop offset="0.5" style="stop-color:#CC3C3C"/>
		<a:midPointStop offset="1" style="stop-color:#E56F6F"/>
	</linearGradient>
	<circle class="st3" cx="12.4" cy="37.6" r="1.4"/>
	<linearGradient id="SVGID_5_" gradientUnits="userSpaceOnUse" x1="37.5996" y1="22.2998" x2="37.5996" y2="2.5">
		<stop offset="0" style="stop-color:#CC3C3C"/>
		<stop offset="1" style="stop-color:#E56F6F"/>
		<a:midPointStop offset="0" style="stop-color:#CC3C3C"/>
		<a:midPointStop offset="0.5" style="stop-color:#CC3C3C"/>
		<a:midPointStop offset="1" style="stop-color:#E56F6F"/>
	</linearGradient>
	<path class="st4" d="M46.1,2.5h-17c-0.8,0-1.4,0.6-1.4,1.4v17c0,0.8,0.6,1.4,1.4,1.4h17c0.8,0,1.4-0.6,1.4-1.4v-17   C47.5,3.1,46.9,2.5,46.1,2.5z M44.8,19.6H30.4V5.2h14.4V19.6z"/>
	<linearGradient id="SVGID_6_" gradientUnits="userSpaceOnUse" x1="37.5996" y1="13.75" x2="37.5996" y2="11.0498">
		<stop offset="0" style="stop-color:#CC3C3C"/>
		<stop offset="1" style="stop-color:#E56F6F"/>
		<a:midPointStop offset="0" style="stop-color:#CC3C3C"/>
		<a:midPointStop offset="0.5" style="stop-color:#CC3C3C"/>
		<a:midPointStop offset="1" style="stop-color:#E56F6F"/>
	</linearGradient>
	<circle class="st5" cx="37.6" cy="12.4" r="1.4"/>
	<linearGradient id="SVGID_7_" gradientUnits="userSpaceOnUse" x1="37.5996" y1="38.9502" x2="37.5996" y2="36.25">
		<stop offset="0" style="stop-color:#CC3C3C"/>
		<stop offset="1" style="stop-color:#E56F6F"/>
		<a:midPointStop offset="0" style="stop-color:#CC3C3C"/>
		<a:midPointStop offset="0.5" style="stop-color:#CC3C3C"/>
		<a:midPointStop offset="1" style="stop-color:#E56F6F"/>
	</linearGradient>
	<circle class="st6" cx="37.6" cy="37.6" r="1.4"/>
	<linearGradient id="SVGID_8_" gradientUnits="userSpaceOnUse" x1="44.748" y1="30.4004" x2="44.748" y2="27.7002">
		<stop offset="0" style="stop-color:#CC3C3C"/>
		<stop offset="1" style="stop-color:#E56F6F"/>
		<a:midPointStop offset="0" style="stop-color:#CC3C3C"/>
		<a:midPointStop offset="0.5" style="stop-color:#CC3C3C"/>
		<a:midPointStop offset="1" style="stop-color:#E56F6F"/>
	</linearGradient>
	<path class="st7" d="M46.2,27.7h-2.8c-0.7,0-1.4,0.6-1.4,1.3s0.6,1.4,1.4,1.4h2.8c0.7,0,1.3-0.6,1.3-1.4S46.9,27.7,46.2,27.7z"/>
	<linearGradient id="SVGID_9_" gradientUnits="userSpaceOnUse" x1="30.4531" y1="47.5" x2="30.4531" y2="44.7998">
		<stop offset="0" style="stop-color:#CC3C3C"/>
		<stop offset="1" style="stop-color:#E56F6F"/>
		<a:midPointStop offset="0" style="stop-color:#CC3C3C"/>
		<a:midPointStop offset="0.5" style="stop-color:#CC3C3C"/>
		<a:midPointStop offset="1" style="stop-color:#E56F6F"/>
	</linearGradient>
	<path class="st8" d="M31.9,44.8H29c-0.7,0-1.3,0.6-1.3,1.4c0,0.7,0.6,1.3,1.3,1.3h2.8c0.7,0,1.4-0.6,1.4-1.3   C33.2,45.4,32.6,44.8,31.9,44.8z"/>
	<linearGradient id="SVGID_10_" gradientUnits="userSpaceOnUse" x1="43.3047" y1="47.5" x2="43.3047" y2="36.25">
		<stop offset="0" style="stop-color:#CC3C3C"/>
		<stop offset="1" style="stop-color:#E56F6F"/>
		<a:midPointStop offset="0" style="stop-color:#CC3C3C"/>
		<a:midPointStop offset="0.5" style="stop-color:#CC3C3C"/>
		<a:midPointStop offset="1" style="stop-color:#E56F6F"/>
	</linearGradient>
	<path class="st9" d="M46.2,36.3c-0.7,0-1.4,0.6-1.4,1.3v7.2h-4.3c-0.7,0-1.3,0.6-1.3,1.4c0,0.7,0.6,1.3,1.3,1.3h7v-9.9   C47.5,36.9,46.9,36.3,46.2,36.3z"/>
	<linearGradient id="SVGID_11_" gradientUnits="userSpaceOnUse" x1="31.9746" y1="38.9502" x2="31.9746" y2="27.7002">
		<stop offset="0" style="stop-color:#CC3C3C"/>
		<stop offset="1" style="stop-color:#E56F6F"/>
		<a:midPointStop offset="0" style="stop-color:#CC3C3C"/>
		<a:midPointStop offset="0.5" style="stop-color:#CC3C3C"/>
		<a:midPointStop offset="1" style="stop-color:#E56F6F"/>
	</linearGradient>
	<path class="st10" d="M34.9,27.7h-7.2v9.9c0,0.7,0.6,1.4,1.3,1.4s1.4-0.6,1.4-1.4v-7.2h4.5c0.7,0,1.3-0.6,1.3-1.4   S35.6,27.7,34.9,27.7z"/>
</g>
</svg>