<svg xmlns="http://www.w3.org/2000/svg" xmlns:xlink="http://www.w3.org/1999/xlink" version="1.1" id="圖層_1" x="0px" y="0px" width="80" height="80" viewBox="0 0 80 80" style="enable-background:new 0 0 80 80;" xml:space="preserve">
<style type="text/css">
	.st0{fill:#B0006E;}
	.st1{fill:#FFFFFF;}
</style>
<g>
	<path class="st0" d="M63,75H17c-6.6,0-12-5.4-12-12V17c0-6.6,5.4-12,12-12h46c6.6,0,12,5.4,12,12v46C75,69.6,69.6,75,63,75z"/>
	<g>
		<path class="st1" d="M54.9,65.2c6.3,0,11.4-5.1,11.4-11.4s-5.1-11.4-11.4-11.4s-11.4,5.1-11.4,11.4S48.6,65.2,54.9,65.2z     M54.9,48.9c2.7,0,4.9,2.2,4.9,4.9s-2.2,4.9-4.9,4.9S50,56.5,50,53.8C49.9,51.1,52.1,48.9,54.9,48.9z"/>
		<path class="st1" d="M37,43.4c-4.3-2.3-8.8-0.2-9.4,0.4c0,0-3.4-2.6-8.3-1s-5.6,6.5-5.6,6.5v15.8h7v-15c0,0,0.3-1.2,1.6-1.2    c1.3,0,1.7,1.1,1.7,1.1v15.2h7V50c0,0,0.3-1.2,1.6-1.2s1.6,1.2,1.6,1.2v15.1h7V49.8C41.3,49.8,41.3,45.8,37,43.4z"/>
		<path class="st1" d="M54.9,38.9c6.3,0,11.4-5.1,11.4-11.4s-5.1-11.4-11.4-11.4s-11.4,5.1-11.4,11.4S48.6,38.9,54.9,38.9z     M54.9,22.6c2.7,0,4.9,2.2,4.9,4.9s-2.2,4.9-4.9,4.9S50,30.2,50,27.5C49.9,24.8,52.1,22.6,54.9,22.6z"/>
		<path class="st1" d="M37,17.2c-4.3-2.3-8.8-0.2-9.4,0.4c0,0-3.4-2.6-8.3-1s-5.6,6.5-5.6,6.5v15.8h7V23.8c0,0,0.3-1.2,1.6-1.2    c1.3,0,1.7,1.1,1.7,1.1v15.2h7V23.8c0,0,0.3-1.2,1.6-1.2s1.6,1.2,1.6,1.2v15.1h7V23.5C41.3,23.5,41.3,19.5,37,17.2z"/>
	</g>
</g>
</svg>