<?xml version="1.0" encoding="utf-8"?>
<!-- Generator: Adobe Illustrator 26.0.3, SVG Export Plug-In . SVG Version: 6.00 Build 0)  -->
<svg version="1.1" id="栝鍣_1" xmlns="http://www.w3.org/2000/svg" xmlns:xlink="http://www.w3.org/1999/xlink" x="0px" y="0px"
	 width="70px" height="62px" viewBox="0 0 70 62" style="enable-background:new 0 0 70 62;" xml:space="preserve">
<style type="text/css">
	.st0{opacity:0.5;clip-path:url(#XMLID_00000142149148289469316920000011272761324616422300_);fill:#AF0022;}
	.st1{fill:url(#SVGID_1_);}
	.st2{fill:#FFFFFF;}
</style>
<g id="侹禖嶱鼨懧鎀_4">
	<g>
		<defs>
			<path id="XMLID_49_" d="M21.37,52.11C12.07,46.06,7.71,37.3,7.71,26.92c0-15.29,12.75-27.6,28.19-26.89
				c13.77,0.63,24.95,11.79,25.61,25.56c0.56,11.55-6.17,21.59-15.98,25.94v7.24c0,3.55-1.23,3.75-4.47,2.62
				C41.06,61.39,30.67,58.16,21.37,52.11z"/>
		</defs>
		
			<linearGradient id="XMLID_00000171704711531203240180000000732330313024066477_" gradientUnits="userSpaceOnUse" x1="132.7913" y1="-1.9647" x2="105.1879" y2="44.2574" gradientTransform="matrix(-1 0 0 1 149.7814 0)">
			<stop  offset="0" style="stop-color:#D000AA"/>
			<stop  offset="1" style="stop-color:#FF2E2E"/>
		</linearGradient>
		<use xlink:href="#XMLID_49_"  style="overflow:visible;fill:url(#XMLID_00000171704711531203240180000000732330313024066477_);"/>
		<clipPath id="XMLID_00000000907983288069993790000000810812000019015040_">
			<use xlink:href="#XMLID_49_"  style="overflow:visible;"/>
		</clipPath>
		<path style="opacity:0.5;clip-path:url(#XMLID_00000000907983288069993790000000810812000019015040_);fill:#AF0022;" d="
			M45.53,51.71v4.06c-1.97,0.42-4.01,0.65-6.1,0.65c-4.75,0-9.24-1.14-13.2-3.17c-0.08-0.04-0.03-0.17,0.06-0.14
			c2.43,0.66,4.99,1.02,7.63,1.02C38.05,54.12,41.98,53.26,45.53,51.71z"/>
	</g>
</g>
<g>
	<linearGradient id="SVGID_1_" gradientUnits="userSpaceOnUse" x1="57.0225" y1="33.6073" x2="12.6664" y2="14.3474">
		<stop  offset="0" style="stop-color:#FE2D30"/>
		<stop  offset="1" style="stop-color:#DC0C8A"/>
	</linearGradient>
	<path class="st1" d="M68.98,25.63L70,20.01l-1.61,0.03l1.01-5.46l-7.12,4.61l-0.17,0.95l-1.29,0.02l-0.18,1
		c-1.05-0.78-2.37-1.17-3.91-1.17c-0.05,0-0.1,0-0.15,0c-2.09,0.03-3.82,0.76-5.14,2.16c-0.09-0.12-0.18-0.24-0.28-0.35
		c-0.96-1.09-2.26-1.67-3.76-1.67l-0.1,0c-0.57,0.01-1.12,0.1-1.64,0.27l-3.66,0.06l-1.45,0.02v0l-3.23,0.05l0.72-3.88l-6.28,0.1
		l-0.92,4.99c-1-0.85-2.28-1.29-3.79-1.29c-0.04,0-0.09,0-0.13,0c-1.4,0.02-2.7,0.42-3.86,1.19c-0.46,0.3-0.87,0.65-1.24,1.04
		c-0.22-0.32-0.5-0.63-0.82-0.9c-0.92-0.77-2.2-1.17-3.81-1.17c-0.06,0-0.11,0-0.17,0c-1.27,0.02-2.37,0.28-3.29,0.77l0.8-4.35
		l-6.36,0.1l-1.77,9.56l-6.21,0.8l-0.14,1.42C0.01,29.26,0,29.58,0,29.86c0.02,1.54,0.57,2.85,1.58,3.79
		c0.97,0.9,2.32,1.36,4.01,1.36c0.05,0,0.1,0,0.16,0c2.04-0.03,3.61-0.65,4.68-1.84c0.08-0.09,0.16-0.19,0.24-0.29
		c0.16,0.24,0.34,0.46,0.54,0.67c0.86,0.87,1.97,1.32,3.23,1.32l0.09,0c0.57-0.01,1.13-0.11,1.68-0.31l0.01,0.05l6.26-0.1l-0.2-0.69
		c0.91,0.58,1.98,0.88,3.22,0.88c0.04,0,0.08,0,0.12,0c1.08-0.02,2.07-0.26,2.97-0.73L28.5,34.4l6.28-0.1l0.36-1.95l0.59,1.94
		l2.29-0.04l-0.72,3.89l6.28-0.1l0.72-3.92c0.51,0.16,1.07,0.24,1.66,0.24l0.1,0c1.77-0.03,3.36-0.83,4.59-2.32
		c0.02-0.02,0.03-0.04,0.04-0.06c0.48,0.61,1.09,1.11,1.81,1.48c0.94,0.49,2.01,0.73,3.17,0.73c0.04,0,0.09,0,0.13,0
		c2.02-0.03,3.74-0.76,5.03-2.11c0.24,0.45,0.55,0.78,0.82,1.01c0.74,0.63,1.78,0.95,3.09,0.95c0.05,0,0.09,0,0.14,0
		c0.6-0.01,1.19-0.08,1.76-0.21l1.14-0.26l1.04-5.56l-1.97,0.22l0.48-2.59L68.98,25.63z M26.49,26.82l-0.47,1.43
		c-0.05,0.16-0.11,0.28-0.15,0.37c0.02-0.45,0.1-0.93,0.25-1.45c0.17-0.61,0.38-0.87,0.48-0.97c0.02-0.01,0.03-0.03,0.05-0.04
		l0.09,0.7L26.49,26.82z M46.19,27.78c-0.22,0.65-0.41,0.83-0.44,0.85c-0.04,0.03-0.07,0.06-0.1,0.07c0,0,0,0,0,0
		c-0.06-0.07-0.14-0.29-0.14-0.68c0-0.25,0.03-0.68,0.24-1.37c0.16-0.54,0.35-0.77,0.44-0.86c0.1-0.1,0.15-0.1,0.18-0.11
		c0.02,0.04,0.09,0.19,0.1,0.57C46.47,26.69,46.38,27.21,46.19,27.78z M56.22,28.24c-0.2,0.27-0.31,0.27-0.41,0.27
		c-0.04,0-0.06,0-0.06,0c0,0-0.02-0.01-0.04-0.04c-0.08-0.08-0.12-0.28-0.13-0.54c-0.01-0.38,0.08-0.83,0.25-1.34
		c0.13-0.38,0.29-0.67,0.48-0.83c0.12-0.1,0.22-0.14,0.38-0.15l0.01,0c0.05,0,0.08,0.01,0.08,0.01c0,0,0,0,0,0s0.01,0,0.02,0.01
		c0.04,0.05,0.07,0.18,0.08,0.35C56.88,26.89,56.67,27.63,56.22,28.24z"/>
	<path class="st2" d="M9.65,18.9l2.73-0.04l-1.57,8.52c-0.42,2.26-0.99,3.79-1.71,4.6c-0.72,0.81-1.85,1.23-3.38,1.25
		c-1.3,0.02-2.27-0.27-2.93-0.88c-0.65-0.61-0.99-1.44-1.01-2.51c0-0.22,0.01-0.47,0.03-0.75l2.57-0.33
		c-0.03,0.28-0.05,0.51-0.04,0.7c0.01,0.45,0.14,0.79,0.39,1.02c0.25,0.23,0.63,0.34,1.14,0.34c0.71-0.01,1.21-0.24,1.49-0.67
		c0.21-0.33,0.46-1.27,0.74-2.81L9.65,18.9z"/>
	<path class="st2" d="M15.21,25.55l-2.58-0.19c0.28-0.91,0.78-1.63,1.51-2.15c0.73-0.52,1.69-0.79,2.9-0.81
		c1.26-0.02,2.19,0.23,2.8,0.74c0.61,0.52,0.92,1.15,0.93,1.91c0,0.31-0.02,0.63-0.06,0.98c-0.05,0.35-0.21,1.25-0.5,2.72
		c-0.24,1.22-0.35,2.07-0.35,2.55c0.01,0.43,0.09,0.91,0.24,1.44l-2.57,0.04c-0.11-0.37-0.18-0.75-0.21-1.14
		c-0.38,0.45-0.82,0.8-1.32,1.05c-0.5,0.25-1,0.37-1.51,0.38c-0.81,0.01-1.48-0.25-2.02-0.79c-0.54-0.54-0.81-1.25-0.83-2.11
		c-0.02-0.97,0.26-1.75,0.83-2.34c0.57-0.59,1.6-0.96,3.09-1.1c1.26-0.13,2.1-0.27,2.52-0.43c0.1-0.38,0.15-0.69,0.15-0.92
		c0-0.29-0.12-0.54-0.35-0.73c-0.23-0.19-0.57-0.29-1.02-0.28c-0.47,0.01-0.84,0.11-1.11,0.32C15.48,24.89,15.3,25.18,15.21,25.55z
		 M17.76,28.06c-0.16,0.05-0.37,0.09-0.63,0.13c-1.32,0.19-2.19,0.44-2.59,0.77c-0.29,0.23-0.42,0.55-0.42,0.93
		c0.01,0.32,0.12,0.59,0.34,0.8c0.22,0.22,0.52,0.32,0.88,0.32c0.4-0.01,0.77-0.11,1.12-0.32c0.35-0.21,0.61-0.47,0.78-0.79
		c0.17-0.32,0.32-0.81,0.44-1.48L17.76,28.06z"/>
	<path class="st2" d="M27.72,28.81l2.58,0.39c-0.4,1.19-1.02,2.1-1.84,2.74c-0.82,0.63-1.78,0.96-2.87,0.97
		c-1.25,0.02-2.24-0.35-2.99-1.11c-0.74-0.76-1.13-1.81-1.15-3.17c-0.02-1.1,0.19-2.15,0.61-3.14c0.43-0.99,1.08-1.77,1.96-2.35
		c0.88-0.58,1.85-0.88,2.92-0.89c1.15-0.02,2.08,0.28,2.78,0.89c0.7,0.61,1.1,1.43,1.2,2.45l-2.51,0.32
		c-0.07-0.57-0.24-0.98-0.52-1.24c-0.28-0.26-0.64-0.39-1.08-0.38c-0.51,0.01-0.98,0.21-1.42,0.62c-0.44,0.4-0.77,1-0.99,1.79
		c-0.22,0.79-0.33,1.53-0.32,2.22c0.01,0.6,0.16,1.06,0.45,1.38c0.29,0.32,0.64,0.48,1.07,0.47c0.42-0.01,0.83-0.17,1.22-0.5
		C27.21,29.93,27.51,29.45,27.72,28.81z"/>
	<path class="st2" d="M30.65,32.58l2.6-14.06l2.64-0.04l-1.36,7.32l3.39-3.49l3.44-0.06l-3.87,3.75l2.2,6.43l-2.64,0.04l-1.42-4.67
		l-1.76,1.67l-0.57,3.06L30.65,32.58z"/>
	<path class="st2" d="M42.04,22.24l2.51-0.04l-0.2,1.05c0.53-0.47,1.02-0.8,1.49-1.01c0.46-0.21,0.96-0.31,1.5-0.32
		c1.03-0.02,1.86,0.34,2.49,1.06c0.64,0.72,0.96,1.81,0.99,3.26c0.03,1.83-0.48,3.38-1.54,4.66c-0.9,1.09-1.99,1.65-3.24,1.67
		c-1.3,0.02-2.28-0.51-2.97-1.59l-0.97,5.29l-2.64,0.04L42.04,22.24z M43.73,28.04c0.01,0.79,0.21,1.4,0.59,1.83
		c0.38,0.43,0.82,0.64,1.32,0.63c0.44-0.01,0.85-0.18,1.25-0.51c0.4-0.33,0.73-0.89,0.98-1.65c0.25-0.77,0.38-1.47,0.37-2.12
		c-0.01-0.76-0.2-1.34-0.55-1.74c-0.36-0.4-0.81-0.59-1.35-0.59c-0.5,0.01-0.96,0.2-1.37,0.58s-0.72,0.93-0.94,1.66
		C43.83,26.86,43.72,27.5,43.73,28.04z"/>
	<path class="st2" d="M51.15,28.04c-0.03-1.88,0.46-3.39,1.46-4.52c1-1.14,2.34-1.72,4-1.74c1.44-0.02,2.58,0.37,3.4,1.18
		c0.82,0.81,1.25,1.92,1.27,3.31c0.03,1.64-0.46,3.07-1.45,4.29c-0.99,1.22-2.34,1.84-4.04,1.86c-0.92,0.01-1.74-0.16-2.46-0.53
		c-0.72-0.37-1.26-0.9-1.62-1.6C51.35,29.59,51.16,28.84,51.15,28.04z M58.65,25.95c-0.01-0.65-0.2-1.17-0.57-1.55
		c-0.37-0.39-0.85-0.57-1.42-0.57c-0.57,0.01-1.08,0.2-1.51,0.57c-0.44,0.37-0.77,0.91-1.01,1.61c-0.23,0.7-0.35,1.35-0.34,1.93
		c0.01,0.73,0.21,1.3,0.6,1.72c0.39,0.42,0.87,0.63,1.45,0.62c0.72-0.01,1.33-0.34,1.81-1C58.34,28.38,58.67,27.26,58.65,25.95z"/>
	<path class="st2" d="M61.94,23.96l0.37-2.04l1.29-0.02l0.3-1.63l3-1.94l-0.65,3.53l1.61-0.03l-0.37,2.04l-1.62,0.03l-0.79,4.27
		c-0.14,0.77-0.21,1.21-0.21,1.32c0,0.21,0.07,0.37,0.2,0.49c0.13,0.12,0.37,0.17,0.7,0.17c0.12,0,0.41-0.03,0.87-0.08l-0.38,2.04
		c-0.45,0.1-0.92,0.16-1.4,0.17c-0.93,0.02-1.62-0.16-2.05-0.53c-0.43-0.37-0.65-0.88-0.66-1.54c-0.01-0.31,0.1-1.03,0.31-2.17
		l0.75-4.1L61.94,23.96z"/>
</g>
</svg>
