<?xml version="1.0" encoding="utf-8"?>
<!-- Generator: Adobe Illustrator 26.0.3, SVG Export Plug-In . SVG Version: 6.00 Build 0)  -->
<svg version="1.1" id="圖層_1" xmlns="http://www.w3.org/2000/svg" xmlns:xlink="http://www.w3.org/1999/xlink" x="0px" y="0px"
	 width="34px" height="34px" viewBox="0 0 34 34" style="enable-background:new 0 0 34 34;" xml:space="preserve">
<style type="text/css">
	.st0{fill:#834995;}
	.st1{fill:#FFFFFF;}
</style>
<g id="_x33_59-viber">
	<g>
		<path class="st0" d="M29.4,3.4c-0.8-0.8-4.2-3.2-11.8-3.3c0,0-8.9-0.5-13.2,3.4C2,6,1.1,9.5,1,13.9c-0.1,4.4-0.2,12.6,7.7,14.8h0
			l0,3.4c0,0-0.1,1.4,0.9,1.7c1.1,0.3,1.7-0.7,2.8-1.8c0.6-0.6,1.4-1.5,2-2.2c5.4,0.5,9.6-0.6,10.1-0.7c1.1-0.4,7.3-1.1,8.3-9.4
			C33.7,11.2,32.2,5.8,29.4,3.4z"/>
		<path class="st1" d="M30.3,19c-0.9,6.9-5.9,7.3-6.8,7.6c-0.4,0.1-4.1,1-8.6,0.7c0,0-3.4,4.1-4.5,5.2c-0.3,0.3-0.7,0.3-0.7-0.4
			c0-0.5,0-5.6,0-5.6c0,0,0,0,0,0C3,24.7,3.4,17.7,3.4,14c0.1-3.7,0.8-6.7,2.8-8.7C9.9,2,17.5,2.5,17.5,2.5c6.4,0,9.4,2,10.2,2.6
			C30,7.1,31.2,12,30.3,19L30.3,19z"/>
		<path class="st0" d="M21.1,13.7c0,0.6-0.8,0.6-0.9,0c-0.1-1.4-0.8-2.2-2.1-2.2c-0.6,0-0.5-0.9,0-0.9C20,10.8,21.1,11.8,21.1,13.7z
			"/>
		<path class="st0" d="M22.5,14.5c0.1-2.8-1.7-5-5-5.2c-0.6,0-0.5-0.9,0.1-0.9c3.8,0.3,5.9,2.9,5.8,6.1C23.3,15,22.5,15,22.5,14.5z"
			/>
		<path class="st0" d="M25.6,15.3c0,0.6-0.9,0.6-0.9,0c0-5.4-3.6-8.3-8-8.3c-0.6,0-0.6-0.9,0-0.9C21.6,6.2,25.5,9.6,25.6,15.3z"/>
		<path class="st0" d="M24.8,21.8L24.8,21.8c-0.7,1.3-2,2.6-3.4,2.2l0,0c-1.4-0.4-4.7-2.1-6.7-3.7c-1.1-0.8-2-1.8-2.8-2.8
			c-0.7-0.9-1.4-1.9-2-3.1c-1.4-2.5-1.7-3.7-1.7-3.7C7.7,9.4,9.1,8,10.3,7.3h0C11,7,11.5,7.1,11.9,7.6c0,0,0.8,1,1.2,1.5
			c0.3,0.4,0.8,1.2,1,1.6c0.4,0.7,0.2,1.4-0.2,1.8L13.1,13c-0.4,0.3-0.3,0.9-0.3,0.9s1.2,4.4,5.6,5.6c0,0,0.6,0.1,0.9-0.3l0.6-0.8
			c0.3-0.4,1-0.6,1.8-0.2c1,0.5,2.2,1.4,3,2.2C25,20.6,25.2,21.2,24.8,21.8L24.8,21.8z"/>
	</g>
</g>
<g id="Layer_1">
</g>
</svg>
