<?xml version="1.0" encoding="utf-8"?>
<!-- Generator: Adobe Illustrator 26.0.3, SVG Export Plug-In . SVG Version: 6.00 Build 0)  -->
<svg version="1.1" id="圖層_1" xmlns="http://www.w3.org/2000/svg" xmlns:xlink="http://www.w3.org/1999/xlink" x="0px" y="0px"
	 width="34px" height="34px" viewBox="0 0 34 34" style="enable-background:new 0 0 34 34;" xml:space="preserve">
<style type="text/css">
	.st0{fill:#4ADBFF;}
</style>
<path class="st0" d="M20.5,32.9l-0.3,0C10.6,31.7,1.3,20.7,1,10.1l0-0.3l0.2-0.3C1.4,9.3,6,4.2,6.5,3.7C7,3.1,7.6,3.1,8,3.1
	c0.4,0,0.8,0.2,1.1,0.6l4.4,5.3c0.3,0.3,1.1,1.3,0,2.5c-0.7,0.8-2.6,2.9-3.3,3.7c0.5,2.3,3.4,6.6,6.7,7.9c0.9-0.6,3.3-2,4.2-2.6
	c1.4-0.9,2.2,0.1,2.4,0.4l4.4,5.2c0.3,0.4,0.4,0.8,0.4,1.2c0,0.4-0.2,0.9-0.8,1.3c-0.6,0.4-6.4,4-6.7,4.2L20.5,32.9z M2.8,10.4
	c0.5,9.4,8.9,19.4,17.3,20.6c1.8-1.1,5.9-3.6,6.3-4c0,0,0,0,0,0c0,0,0,0,0,0l-4.3-5.1c0,0-0.1-0.1-0.1-0.1c0,0-0.1,0-0.1,0.1
	c-1.1,0.7-4.5,2.8-4.5,2.8l-0.3,0.2l-0.4-0.1c-4.6-1.4-8-7.2-8.3-9.9l0-0.4l0.3-0.3c0,0,2.7-3,3.6-4c0,0,0.1-0.1,0.1-0.1
	c0,0,0-0.1-0.1-0.1L7.8,4.9c0,0,0,0,0,0C7.3,5.3,4.2,8.8,2.8,10.4z"/>
<g>
	<path class="st0" d="M32.1,15.9C32.1,15.9,32.1,15.9,32.1,15.9c-0.5,0-0.9-0.4-0.9-0.9l0-0.2c0-0.1,0-0.2,0-0.2
		c0-6-4.7-11.2-10.7-11.7c-0.5,0-0.8-0.5-0.8-0.9s0.5-0.8,0.9-0.8C27.6,1.7,33,7.6,33,14.6c0,0.1,0,0.2,0,0.4l0,0.2
		C33,15.6,32.6,15.9,32.1,15.9z"/>
</g>
<g>
	<path class="st0" d="M27.1,17.3C27.1,17.3,27,17.3,27.1,17.3c-0.5,0-0.9-0.4-0.9-0.9l0-0.2c0-0.1,0-0.2,0-0.3c0-4.1-3.2-7.7-7.4-8
		c-0.5,0-0.8-0.5-0.8-0.9s0.5-0.8,0.9-0.8c5,0.4,9,4.7,9,9.8c0,0.1,0,0.3,0,0.4l0,0.1C27.9,16.9,27.5,17.3,27.1,17.3z"/>
</g>
</svg>
