<?xml version="1.0" encoding="utf-8"?>
<!-- Generator: Adobe Illustrator 26.0.3, SVG Export Plug-In . SVG Version: 6.00 Build 0)  -->
<svg version="1.1" id="圖層_1" xmlns="http://www.w3.org/2000/svg" xmlns:xlink="http://www.w3.org/1999/xlink" x="0px" y="0px"
	 width="34px" height="34px" viewBox="0 0 34 34" style="enable-background:new 0 0 34 34;" xml:space="preserve">
<style type="text/css">
	.st0{fill:#2782D7;}
</style>
<g>
	<path class="st0" d="M6.5,32.4c-0.1,0-0.3,0-0.4-0.1c-0.3-0.2-0.6-0.5-0.6-0.9V27C3,26.6,1,24.3,1,21.6V9.1c0-3,2.5-5.5,5.5-5.5h21
		c3,0,5.5,2.5,5.5,5.5v12.5c0,3-2.5,5.5-5.5,5.5H12.8l-5.7,5.1C6.9,32.3,6.7,32.4,6.5,32.4z M6.5,5.5c-2,0-3.6,1.6-3.6,3.6v12.5
		c0,2,1.6,3.6,3.6,3.6c0.5,0,0.9,0.4,0.9,0.9v3.2l4.4-3.9c0.2-0.2,0.4-0.2,0.6-0.2h15.1c2,0,3.6-1.6,3.6-3.6V9.1
		c0-2-1.6-3.6-3.6-3.6H6.5z"/>
</g>
<g>
	<g>
		<path class="st0" d="M9.8,18.1c-1.5,0-2.7-1.2-2.7-2.7s1.2-2.8,2.7-2.8s2.8,1.2,2.8,2.8S11.3,18.1,9.8,18.1z"/>
	</g>
	<g>
		<path class="st0" d="M17,18.1c-1.5,0-2.8-1.2-2.8-2.7s1.2-2.7,2.8-2.7c1.5,0,2.7,1.2,2.7,2.7S18.5,18.1,17,18.1z"/>
	</g>
	<g>
		<path class="st0" d="M24.2,18.1c-1.5,0-2.7-1.2-2.7-2.7s1.2-2.7,2.7-2.7c1.5,0,2.8,1.2,2.8,2.7S25.7,18.1,24.2,18.1z"/>
	</g>
</g>
</svg>
