<?xml version="1.0" encoding="utf-8"?>
<!-- Generator: Adobe Illustrator 26.0.3, SVG Export Plug-In . SVG Version: 6.00 Build 0)  -->
<svg version="1.1" id="圖層_1" xmlns="http://www.w3.org/2000/svg" xmlns:xlink="http://www.w3.org/1999/xlink" x="0px" y="0px"
	 width="34px" height="34px" viewBox="0 0 34 34" style="enable-background:new 0 0 34 34;" xml:space="preserve">
<style type="text/css">
	.st0{fill:#E83E30;}
</style>
<path class="st0" d="M31.4,5.5H2.6C1.7,5.5,1,6.2,1,7.1v19.8c0,0.9,0.7,1.7,1.6,1.7h28.7c0.9,0,1.6-0.7,1.6-1.7V7.1
	C33,6.2,32.3,5.5,31.4,5.5z M4.3,7.4c0.1-0.1,0.2-0.1,0.4-0.1h24.6c0.2,0,0.4,0.1,0.4,0.2c-0.1,0.1-0.1,0.1-0.1,0.1
	c-3.5,3.3-7,6.6-10.5,9.9c-1.3,1.2-2.9,1.2-4.2,0L4.2,7.6C4.2,7.6,4.2,7.5,4.3,7.4z M2.9,24.3c0-2.2,0-4.6,0-6.8c0-2.5,0-5.1,0-7.6
	c0-0.3,0-0.7,0-1c0-0.1,0-0.1,0-0.2L3,8.6c3.3,3.1,6.9,6.5,10.2,9.7c-3.4,2.5-6.7,4.9-9.9,7.4C2.9,25.2,2.9,24.8,2.9,24.3z
	 M29.3,26.6H4.7c-0.2,0-0.3,0-0.6-0.2c3.3-2.5,6.7-4.9,10-7.4c2,1.4,3.9,1.4,5.8,0c3.3,2.4,6.7,4.9,10.1,7.4
	C29.9,26.6,29.7,26.6,29.3,26.6z M31.1,24.4c0,0.4,0,1.1-0.2,1.3c-3.4-2.5-6.7-5-10-7.5c3.4-3.2,6.7-6.3,10.1-9.5
	c0.1,0.3,0.1,0.7,0.1,1C31.1,14.6,31.1,19.5,31.1,24.4z"/>
</svg>
